<?xml version="1.0" encoding="utf-8"?>
<!-- Generator: Adobe Illustrator 16.0.0, SVG Export Plug-In . SVG Version: 6.00 Build 0)  -->
<!DOCTYPE svg PUBLIC "-//W3C//DTD SVG 1.1//EN" "http://www.w3.org/Graphics/SVG/1.1/DTD/svg11.dtd">
<svg version="1.1" id="Layer_1" focusable="false" xmlns="http://www.w3.org/2000/svg" xmlns:xlink="http://www.w3.org/1999/xlink"
	 x="0px" y="0px" width="2902.68px" height="2177.01px" viewBox="0 0 2902.68 2177.01" enable-background="new 0 0 2902.68 2177.01"
	 xml:space="preserve">
<path fill="#FFFFFF" d="M457.229,136.063c-37.569-0.472-68.409,29.601-68.882,67.17c0,0.004,0,0.007,0,0.011
	c0.072,3.981,0.355,7.955,0.851,11.906l288.709,1752.238c7.375,44.375,45.585,77.023,90.566,77.386h1384.868
	c33.647,0.447,62.565-23.772,68.031-56.977l288.709-1772.222c5.878-36.96-19.2-71.727-56.126-77.812
	c-3.949-0.51-7.924-0.794-11.906-0.85L457.229,136.063z M1672.867,1402.301h-442.205l-119.48-625.04h668.836L1672.867,1402.301
	L1672.867,1402.301z"/>
</svg>
