<?xml version="1.0" encoding="utf-8"?>
<!-- Generator: Adobe Illustrator 16.0.0, SVG Export Plug-In . SVG Version: 6.00 Build 0)  -->
<!DOCTYPE svg PUBLIC "-//W3C//DTD SVG 1.1//EN" "http://www.w3.org/Graphics/SVG/1.1/DTD/svg11.dtd">
<svg version="1.1" id="Layer_1" focusable="false" xmlns="http://www.w3.org/2000/svg" xmlns:xlink="http://www.w3.org/1999/xlink"
	 x="0px" y="0px" width="2902.68px" height="2177.01px" viewBox="0 0 2902.68 2177.01" enable-background="new 0 0 2902.68 2177.01"
	 xml:space="preserve">
<path fill="#FFFFFF" d="M2498.537,679.057L1503.575,15.749c-33.96-20.898-70.204-21.089-104.476,0L404.139,679.057
	c-25.512,17.004-41.304,47.38-41.304,77.748v663.303c0,30.372,15.792,60.744,41.308,77.752l994.962,663.401
	c33.96,20.898,70.204,21.09,104.476,0l994.961-663.401c25.512-17.004,41.309-47.38,41.309-77.752V756.805
	C2539.845,726.437,2524.053,696.061,2498.537,679.057z M1544.883,268.431l732.556,488.374l-326.794,218.674l-405.762-270.914
	V268.431z M1357.797,268.431v436.133L952.035,975.479L625.241,756.805L1357.797,268.431z M549.922,931.743l234.467,156.715
	l-234.467,156.715V931.743L549.922,931.743z M1357.797,1908.485l-732.556-488.373l326.794-218.675l405.762,270.914V1908.485z
	 M1451.34,1309.561l-330.441-221.103l330.441-221.103l330.441,221.103L1451.34,1309.561z M1544.883,1908.485v-436.134
	l405.762-270.914l326.794,218.675L1544.883,1908.485z M2352.758,1245.173l-234.467-156.715l234.467-156.715V1245.173
	L2352.758,1245.173z"/>
</svg>
