<?xml version="1.0" encoding="utf-8"?>
<!-- Generator: Adobe Illustrator 16.0.0, SVG Export Plug-In . SVG Version: 6.00 Build 0)  -->
<!DOCTYPE svg PUBLIC "-//W3C//DTD SVG 1.1//EN" "http://www.w3.org/Graphics/SVG/1.1/DTD/svg11.dtd">
<svg version="1.1" id="Layer_1" focusable="false" xmlns="http://www.w3.org/2000/svg" xmlns:xlink="http://www.w3.org/1999/xlink"
	 x="0px" y="0px" width="2902.68px" height="2177.01px" viewBox="0 0 2902.68 2177.01" enable-background="new 0 0 2902.68 2177.01"
	 xml:space="preserve">
<path fill="#FFFFFF" d="M1102.253,1689.733c0,8.504-9.779,15.308-22.11,15.308c-14.031,1.275-23.811-5.527-23.811-15.308
	c0-8.504,9.779-15.307,22.109-15.307C1091.197,1673.151,1102.253,1679.954,1102.253,1689.733z M970.017,1670.6
	c-2.977,8.504,5.527,18.283,18.283,20.835c11.056,4.252,23.812,0,26.362-8.504s-5.527-18.283-18.283-22.11
	C985.323,1657.844,972.993,1662.096,970.017,1670.6L970.017,1670.6z M1157.953,1663.371c-12.33,2.977-20.834,11.056-19.559,20.835
	c1.275,8.504,12.331,14.031,25.087,11.055c12.33-2.976,20.835-11.055,19.559-19.559
	C1181.765,1667.623,1170.284,1662.096,1157.953,1663.371z M1437.733,34.016c-589.748,0-1040.883,447.732-1040.883,1037.481
	c0,471.544,296.788,875.056,720.71,1017.071c54.425,9.78,73.559-23.811,73.559-51.448c0-26.362-1.275-171.78-1.275-261.071
	c0,0-297.639,63.779-360.143-126.709c0,0-48.473-123.732-118.204-155.622c0,0-97.37-66.756,6.803-65.48
	c0,0,105.874,8.504,164.126,109.701c93.118,164.126,249.166,116.929,309.969,88.866c9.779-68.031,37.418-115.229,68.031-143.292
	c-237.685-26.362-477.496-60.803-477.496-469.843c0-116.929,32.315-175.606,100.347-250.44
	c-11.056-27.639-47.197-141.591,11.055-288.709c88.866-27.639,293.387,114.803,293.387,114.803
	c85.039-23.811,176.456-36.142,267.023-36.142s181.984,12.331,267.024,36.142c0,0,204.52-142.866,293.386-114.803
	c58.252,147.543,22.11,261.07,11.056,288.709c68.031,75.26,109.7,133.937,109.7,250.44c0,410.315-250.44,443.056-488.126,469.843
	c39.118,33.591,72.283,97.37,72.283,197.292c0,143.291-1.275,320.599-1.275,355.465c0,27.638,19.559,61.229,73.559,51.449
	c425.197-141.166,713.481-544.678,713.481-1016.222C2505.829,481.748,2027.482,34.016,1437.733,34.016z M810.143,1500.521
	c-5.527,4.252-4.252,14.032,2.977,22.11c6.803,6.804,16.582,9.78,22.109,4.252c5.528-4.252,4.252-14.031-2.976-22.11
	C825.449,1497.97,815.67,1494.993,810.143,1500.521z M764.221,1466.08c-2.976,5.527,1.276,12.331,9.78,16.583
	c6.803,4.252,15.307,2.976,18.283-2.977c2.977-5.528-1.275-12.331-9.779-16.583C774.001,1460.553,767.197,1461.828,764.221,1466.08z
	 M901.985,1617.45c-6.804,5.527-4.252,18.283,5.527,26.362c9.779,9.779,22.11,11.055,27.638,4.252
	c5.527-5.527,2.977-18.283-5.527-26.362C920.269,1611.923,907.513,1610.647,901.985,1617.45z M853.513,1554.946
	c-6.804,4.252-6.804,15.307,0,25.087c6.803,9.779,18.283,14.031,23.811,9.779c6.804-5.527,6.804-16.583,0-26.362
	C871.371,1553.671,860.315,1549.419,853.513,1554.946L853.513,1554.946z"/>
</svg>
